<svg xmlns="http://www.w3.org/2000/svg" width="170.667" height="170.667" preserveAspectRatio="xMidYMid meet" version="1.0" viewBox="0 0 128 128"><g fill="#000" stroke="none"><path d="M565 1273 c-153 -24 -262 -79 -370 -188 -132 -131 -188 -265 -188 -445 0 -180 56 -314 188 -445 131 -132 265 -188 445 -188 180 0 314 56 445 188 132 131 188 265 188 445 0 180 -56 314 -188 445 -88 89 -177 142 -282 169 -66 17 -189 27 -238 19z m190 -359 c37 -14 45 -57 45 -229 0 -102 -4 -175 -11 -188 -15 -30 -221 -237 -235 -237 -7 0 -24 14 -39 32 -28 33 -30 57 -9 156 l7 32 -102 0 c-95 0 -104 2 -126 25 -21 20 -25 34 -25 82 0 47 10 80 50 173 72 170 56 160 258 160 94 0 178 -3 187 -6z m243 -202 l2 -203 -82 3 -83 3 -3 190 c-1 104 0 195 3 203 3 9 25 12 82 10 l78 -3 3 -203z" transform="translate(0.000000,128.000000) scale(0.100000,-0.100000)"/></g></svg>